<?xml version="1.0" standalone="no"?>
<!DOCTYPE svg PUBLIC "-//W3C//DTD SVG 20010904//EN"
 "http://www.w3.org/TR/2001/REC-SVG-20010904/DTD/svg10.dtd">
<svg version="1.0" xmlns="http://www.w3.org/2000/svg"
 width="450.000000pt" height="360.000000pt" viewBox="0 0 450.000000 360.000000"
 preserveAspectRatio="xMidYMid meet">

<g transform="translate(0.000000,360.000000) scale(0.100000,-0.100000)"
fill="#000000" stroke="none">
<path d="M1718 2484 c-234 -56 -368 -255 -368 -543 0 -116 16 -199 53 -282 65
-146 209 -249 371 -267 l59 -7 12 -55 c14 -70 33 -106 82 -152 64 -61 107 -73
268 -73 77 0 152 3 168 8 l27 7 0 95 c0 52 -4 95 -9 95 -5 0 -37 -7 -71 -16
-123 -31 -208 2 -217 86 -4 45 -4 45 39 64 64 29 159 129 195 206 41 89 53
141 63 295 11 159 34 231 94 291 48 48 108 69 174 60 140 -19 212 -140 212
-355 0 -230 -85 -355 -241 -354 -59 1 -97 16 -147 58 l-30 25 -12 -36 c-7 -19
-32 -65 -56 -102 -37 -54 -42 -68 -31 -79 19 -19 121 -53 185 -61 l55 -7 17
-60 c30 -109 67 -156 155 -197 45 -21 65 -23 190 -23 77 0 152 3 168 8 l27 7
0 95 c0 52 -4 95 -9 95 -5 0 -37 -7 -71 -16 -100 -25 -189 -1 -209 57 -19 55
-14 65 45 99 110 62 197 184 230 326 22 96 15 305 -15 387 -80 224 -242 336
-488 337 -157 0 -276 -44 -368 -136 -101 -100 -142 -211 -155 -419 -11 -189
-45 -275 -125 -325 -134 -83 -285 -16 -335 149 -30 97 -25 286 9 373 24 63 83
126 133 145 71 25 158 10 212 -38 19 -16 36 -29 39 -29 3 0 12 18 21 41 9 23
35 67 56 99 22 33 40 62 40 65 0 11 -103 52 -158 64 -71 15 -213 13 -284 -5z"/>
</g>
</svg>
